<svg width="88" height="95" viewBox="0 0 88 95" fill="none" xmlns="http://www.w3.org/2000/svg">
<g clip-path="url(#clip0_117_1697)">
<path d="M47.3014 0.00265261C51.4218 -0.119607 54.528 4.00842 56.4547 7.40945C57.2257 7.50348 57.9938 7.62266 58.758 7.76698C65.4845 9.08563 71.2866 12.7671 75.1847 18.8342C77.77 22.858 79.1939 27.7095 78.974 32.6105C78.9146 33.9332 78.6933 35.0986 78.4667 36.3904C80.8391 35.5234 84.0768 35.5158 86.117 37.2243C87.0707 38.0343 87.6778 39.2215 87.8008 40.5167C88.0868 43.319 85.8325 45.5946 83.617 46.634C82.248 47.2763 80.8918 47.5373 79.4114 47.6946C78.5152 50.5263 77.0234 51.9225 74.645 53.3135C78.2309 58.6112 80.6475 65.9823 79.7208 72.4712C77.3652 88.967 60.5938 95.0714 46.8663 94.5791C44.6718 94.5001 42.6975 94.2775 40.5502 93.9673C30.6707 92.3728 22.1335 87.9959 15.6406 79.6699C9.22651 71.4455 7.19588 61.9378 8.04428 51.4204C8.30233 48.2215 8.9588 42.6865 11.4491 40.5689C14.3201 38.1273 16.6585 41.4737 18.5586 43.4407C19.2301 44.1359 20.3747 45.1611 21.1761 45.6718C23.6203 47.2296 25.3697 47.5597 28.0922 47.892C26.5856 45.9363 25.2812 42.6877 24.7738 40.2233C23.3554 33.3348 24.3804 26.2351 27.8249 20.2243C30.8902 14.8747 36.4802 9.9797 42.2031 8.5094C41.297 8.04213 40.4104 7.49625 39.9599 6.48378C39.4628 5.36677 40.0071 4.1856 41.0511 3.73943C42.4888 3.12514 44.1825 3.75899 45.5427 4.34553C45.0448 2.34428 45.0112 0.376369 47.3014 0.00265261Z" fill="#091A35"/>
<path d="M50.1201 8.48667C49.3992 7.75619 48.742 6.95712 48.1569 6.09918C47.2328 4.74362 45.3156 0.846334 48.6897 1.80197C51.8677 2.70201 53.96 6.08646 55.5628 8.93977C56.3263 9.13785 57.4455 9.28516 58.2561 9.42139C65.8122 10.6908 72.9253 15.8301 75.868 23.6134C74.8605 22.246 73.7417 20.8703 72.0949 20.3983C71.1698 20.1258 70.1805 20.2698 69.3572 20.7965C66.634 22.5204 66.3995 26.9379 66.8716 29.905C66.9533 30.4186 66.9927 31.1133 67.2448 31.5634L67.2631 31.6102C67.4861 32.196 67.8432 33.7291 68.312 34.071L68.3965 34.0348L68.4336 33.8125L68.8783 34.7218L68.8325 34.7534C68.7122 34.7238 67.7892 34.0916 67.5305 33.96C62.9053 31.6063 60.5421 36.1482 57.9568 39.0593C57.2915 39.8176 56.5381 40.4818 55.7149 41.0354C53.8258 42.3161 52.7865 42.0681 50.8033 42.613C48.6293 43.2102 47.5291 45.7014 48.2945 47.96C48.9247 49.8195 50.4474 50.9865 52.0668 51.8558C57.3234 54.458 63.2763 56.1129 69.0884 55.161C70.4357 54.9377 71.8549 54.4841 73.1266 54.0198C73.8169 54.8388 74.3406 55.8692 74.8707 56.7968C79.9831 65.7444 79.702 76.7171 72.3769 84.2184C65.818 90.9364 55.8465 93.1292 47.0012 92.9134C36.635 92.66 25.956 88.9238 18.6403 80.83C12.1366 73.6253 9.12257 64.4654 9.46575 54.5245C9.71115 50.6875 9.80384 45.1464 12.2274 42.1213C13.8698 40.0713 16.3832 43.4568 17.5114 44.6531C21.0195 48.3729 24.7468 49.5404 29.5987 49.6866C31.6561 51.7208 33.5783 52.8601 36.4337 53.1467C36.0191 52.8503 35.3731 52.4888 34.9161 52.192C33.989 51.5933 33.1081 50.9162 32.2821 50.1671C28.338 46.6144 26.2817 42.0397 25.8505 36.5751C25.264 29.8594 27.238 23.1748 31.3256 18.0352C35.3242 12.9309 41.0532 9.72844 47.2574 9.12957C46.2941 8.68581 40.9269 7.07042 41.3067 5.56601C41.9471 4.72493 44.5344 5.60696 45.3832 5.98308C46.9951 6.69718 48.5816 7.6058 50.1201 8.48667Z" fill="url(#paint0_linear_117_1697)"/>
<path d="M50.1201 8.48667C49.3992 7.75619 48.742 6.95712 48.1569 6.09918C47.2328 4.74362 45.3156 0.846334 48.6897 1.80197C51.8677 2.70201 53.96 6.08646 55.5628 8.93977C56.3263 9.13785 57.4455 9.28516 58.2561 9.42139C65.8122 10.6908 72.9253 15.8301 75.868 23.6134C74.8605 22.246 73.7417 20.8703 72.0949 20.3983C71.1698 20.1258 70.1805 20.2698 69.3572 20.7965C66.634 22.5204 66.3995 26.9379 66.8716 29.905C66.9533 30.4186 66.9927 31.1133 67.2448 31.5634L67.2631 31.6102C67.4861 32.196 67.8432 33.7291 68.312 34.071L68.3965 34.0348L68.4336 33.8125L68.8783 34.7218L68.8325 34.7534C68.7122 34.7238 67.7892 34.0916 67.5305 33.96C62.9053 31.6063 60.5421 36.1482 57.9568 39.0593C57.2915 39.8176 56.5381 40.4818 55.7149 41.0354C53.8258 42.3161 52.7865 42.0681 50.8033 42.613C48.6293 43.2102 47.5291 45.7014 48.2945 47.96C48.9247 49.8195 50.4474 50.9865 52.0668 51.8558C57.3234 54.458 63.2763 56.1129 69.0884 55.161C70.4357 54.9377 71.8549 54.4841 73.1266 54.0198C73.8169 54.8388 74.3406 55.8692 74.8707 56.7968C79.9831 65.7444 79.702 76.7171 72.3769 84.2184C65.818 90.9364 55.8465 93.1292 47.0012 92.9134C36.635 92.66 25.956 88.9238 18.6403 80.83C12.1366 73.6253 9.12257 64.4654 9.46575 54.5245C9.71115 50.6875 9.80384 45.1464 12.2274 42.1213C13.8698 40.0713 16.3832 43.4568 17.5114 44.6531C21.0195 48.3729 24.7468 49.5404 29.5987 49.6866C31.6561 51.7208 33.5783 52.8601 36.4337 53.1467C36.0191 52.8503 35.3731 52.4888 34.9161 52.192C33.989 51.5933 33.1081 50.9162 32.2821 50.1671C28.338 46.6144 26.2817 42.0397 25.8505 36.5751C25.264 29.8594 27.238 23.1748 31.3256 18.0352C35.3242 12.9309 41.0532 9.72844 47.2574 9.12957C46.2941 8.68581 40.9269 7.07042 41.3067 5.56601C41.9471 4.72493 44.5344 5.60696 45.3832 5.98308C46.9951 6.69718 48.5816 7.6058 50.1201 8.48667Z" fill="url(#paint1_radial_117_1697)" fill-opacity="0.3"/>
<path d="M50.1201 8.48667C49.3992 7.75619 48.742 6.95712 48.1569 6.09918C47.2328 4.74362 45.3156 0.846334 48.6897 1.80197C51.8677 2.70201 53.96 6.08646 55.5628 8.93977C56.3263 9.13785 57.4455 9.28516 58.2561 9.42139C65.8122 10.6908 72.9253 15.8301 75.868 23.6134C74.8605 22.246 73.7417 20.8703 72.0949 20.3983C71.1698 20.1258 70.1805 20.2698 69.3572 20.7965C66.634 22.5204 66.3995 26.9379 66.8716 29.905C66.9533 30.4186 66.9927 31.1133 67.2448 31.5634L67.2631 31.6102C67.4861 32.196 67.8432 33.7291 68.312 34.071L68.3965 34.0348L68.4336 33.8125L68.8783 34.7218L68.8325 34.7534C68.7122 34.7238 67.7892 34.0916 67.5305 33.96C62.9053 31.6063 60.5421 36.1482 57.9568 39.0593C57.2915 39.8176 56.5381 40.4818 55.7149 41.0354C53.8258 42.3161 52.7865 42.0681 50.8033 42.613C48.6293 43.2102 47.5291 45.7014 48.2945 47.96C48.9247 49.8195 50.4474 50.9865 52.0668 51.8558C57.3234 54.458 63.2763 56.1129 69.0884 55.161C70.4357 54.9377 71.8549 54.4841 73.1266 54.0198C73.8169 54.8388 74.3406 55.8692 74.8707 56.7968C79.9831 65.7444 79.702 76.7171 72.3769 84.2184C65.818 90.9364 55.8465 93.1292 47.0012 92.9134C36.635 92.66 25.956 88.9238 18.6403 80.83C12.1366 73.6253 9.12257 64.4654 9.46575 54.5245C9.71115 50.6875 9.80384 45.1464 12.2274 42.1213C13.8698 40.0713 16.3832 43.4568 17.5114 44.6531C21.0195 48.3729 24.7468 49.5404 29.5987 49.6866C31.6561 51.7208 33.5783 52.8601 36.4337 53.1467C36.0191 52.8503 35.3731 52.4888 34.9161 52.192C33.989 51.5933 33.1081 50.9162 32.2821 50.1671C28.338 46.6144 26.2817 42.0397 25.8505 36.5751C25.264 29.8594 27.238 23.1748 31.3256 18.0352C35.3242 12.9309 41.0532 9.72844 47.2574 9.12957C46.2941 8.68581 40.9269 7.07042 41.3067 5.56601C41.9471 4.72493 44.5344 5.60696 45.3832 5.98308C46.9951 6.69718 48.5816 7.6058 50.1201 8.48667Z" fill="url(#paint2_radial_117_1697)" fill-opacity="0.2"/>
<path d="M49.3557 40.844C48.8562 41.1729 46.6106 40.2322 46.0413 39.9164C44.0402 38.8064 42.6969 36.8028 42.0299 34.5404C41.1212 31.3781 41.4019 27.9619 42.8124 25.0172C46.5561 17.3594 55.855 18.163 58.2426 26.4319C58.594 27.6488 58.9698 31.5609 58.4466 32.5797C57.6514 38.0592 54.7899 41.2183 49.3557 40.844Z" fill="#F5F5EF"/>
<path d="M49.3557 40.844C48.8562 41.1729 46.6106 40.2322 46.0413 39.9164C44.0402 38.8064 42.6969 36.8028 42.0299 34.5404C41.1212 31.3781 41.4019 27.9619 42.8124 25.0172C46.5561 17.3594 55.855 18.163 58.2426 26.4319C58.594 27.6488 58.9698 31.5609 58.4466 32.5797C58.4501 29.2164 57.7783 25.9474 55.5183 23.4879C52.632 20.392 48.2134 20.4996 45.3982 23.6493C43.4103 25.8733 42.7576 28.3274 42.7402 31.3451C42.7159 35.5717 45.2699 39.99 49.3557 40.844Z" fill="#091A35"/>
<path d="M51.633 25.0731C52.5525 24.9899 53.4719 25.2332 54.2488 25.7653C58.0493 28.3703 57.9998 37.1956 52.8265 38.3508C51.6849 38.3966 50.9006 38.2825 49.936 37.5617C46.1643 34.7436 46.4844 25.934 51.633 25.0731Z" fill="#2F2115"/>
<path d="M52.9219 27.8688C53.25 27.4344 53.8823 27.2948 54.3769 27.5221C54.6691 27.6564 54.9034 27.8937 55.0755 28.2798C55.2513 28.6689 55.2722 29.1175 55.1335 29.5233C55.0784 29.6808 55.0155 29.8029 54.9419 29.9027C54.6317 30.3235 54.0078 30.4467 53.5381 30.2174C52.695 29.8057 52.3446 28.6334 52.9219 27.8688Z" fill="#F5F5EF"/>
<path d="M64.6517 13.3566C66.4844 13.2407 68.7115 14.6871 69.6417 16.387C69.9943 17.0313 69.6735 17.6216 69.0744 17.9068C67.3398 18.0943 65.2611 16.7747 64.2508 15.3105C63.7309 14.557 63.9306 13.8422 64.6517 13.3566Z" fill="#617A93"/>
<g filter="url(#filter0_f_117_1697)">
<path d="M55.1375 66.5095C60.6968 64.3091 68.5915 64.9126 72.6752 67.4273C74.2232 68.3803 73.6592 69.9426 72.0195 71.1725C66.8134 73.4158 59.4665 72.9153 55.3052 70.9729C53.164 69.9733 53.2658 68.2838 55.1375 66.5095Z" fill="#355278"/>
</g>
<g filter="url(#filter1_f_117_1697)">
<path d="M45.6491 21.2299C38.1219 27.9661 38.664 37.3652 47.962 41.895C47.0583 44.0086 44.9612 43.8727 43.0732 42.3775C30.742 38.703 29.7392 30.0419 40.0111 22.9069C40.8564 20.0891 43.0234 19.6462 45.6491 21.2299Z" fill="#355278" fill-opacity="0.1"/>
</g>
<path d="M67.2456 31.5635C66.8546 28.784 66.9778 25.6737 68.5449 23.3032C69.04 22.5543 70.0437 21.5986 70.9036 21.5249C74.4364 21.222 76.448 26.2072 76.7921 29.2732C77.0401 31.4823 76.9481 33.3861 76.2681 35.3663C76.3335 35.9492 76.3281 36.6083 76.2781 37.1926C75.8336 37.4321 75.4557 37.5737 74.9625 37.6686C73.7741 37.8888 72.167 37.6417 71.2364 36.7685C70.1343 35.9654 69.8463 35.9054 68.879 34.7219L68.3128 34.0711C67.8439 33.7292 67.4869 32.1962 67.2638 31.6103L67.2456 31.5635Z" fill="#F5F5EF"/>
<path d="M68.4326 33.8126C67.4461 31.4337 67.2789 26.6958 69.9539 25.2537C71.615 24.3581 73.5149 26.5284 73.9322 28.0393C74.6883 30.1134 74.7827 32.3589 73.9975 34.4393C73.4783 35.7631 72.6442 36.7576 71.2346 36.7684C70.1325 35.9653 69.8445 35.9054 68.8772 34.7219L68.4326 33.8126Z" fill="#2F2115"/>
<path d="M70.4299 27.6458C70.5587 26.8562 71.6045 26.4767 72.2133 26.9958C72.6845 27.3975 72.9021 28.0685 72.716 28.6743C72.5079 29.3519 71.6114 29.7075 71.0457 29.2805C70.9445 29.2042 70.8479 29.1076 70.7539 28.9873C70.483 28.6362 70.3613 28.1804 70.4179 27.7294C70.4215 27.7007 70.4255 27.6729 70.4299 27.6458Z" fill="#F5F5EF"/>
<path d="M74.9609 37.6685C75.5058 37.0643 75.9257 36.1196 76.2666 35.3662C76.332 35.9491 76.3266 36.6082 76.2766 37.1925C75.832 37.432 75.4542 37.5736 74.9609 37.6685Z" fill="#091A35"/>
<path d="M68.9319 34.8968C65.7647 32.6744 63.9722 31.7279 60.4319 35.8968C57.9452 39.4798 56.3891 41.1884 51.9319 42.3C50.1062 42.5968 48.8048 43.4516 48.3159 44.8968C47.7177 46.3124 47.9053 48.0673 49.4319 49.8968C51.5 52 54 53 58.5 54.5C61.5088 55.5029 63 55.5 66.9319 55.3968C74 55 76.8089 53.0934 79.4319 47.8968C81.3173 47.6615 82.3046 47.5269 83.9098 46.6835C84.2605 46.4993 84.5855 46.2667 84.877 45.9985C88.1931 42.9482 88.7578 40.4405 87.3324 38.1932C85.7033 35.7016 81.7616 35.0814 78.4319 36.3968C74.0134 38.639 72.048 37.8243 68.9319 34.8968Z" fill="#B85A06"/>
<path d="M64.9174 34.5087C68.3254 34.2933 69.6679 38.1461 73.1227 38.6786C75.5538 39.0533 76.4747 38.2754 78.65 37.6804C79.8896 37.3324 81.175 37.2085 82.453 37.3139C84.3696 37.4878 86.4502 38.747 86.2056 40.9567C85.8709 43.9812 81.6269 45.82 79.0951 45.7364C78.899 45.7299 78.8293 45.6345 78.7338 45.496L78.7577 45.3358C79.1065 44.7356 80.9624 43.818 81.6196 43.5865C82.0785 43.4248 82.7595 43.2801 83.1655 43.0394L83.1404 42.9858C82.8266 42.9075 82.3707 42.9206 82.0414 42.9126C79.1292 42.8523 77.1002 45.1592 74.7323 46.6779C69.0068 50.3505 61.3894 50.2413 55.6258 46.7302C55.0406 46.3737 54.3658 45.5923 53.7352 45.395C53.0955 45.1948 52.1988 46.0639 52.433 46.81C52.4867 46.9809 52.6428 47.0999 52.8215 47.112C52.9892 47.1234 53.1706 47.1029 53.3308 47.0959C54.2211 47.6393 54.754 48.2593 55.8221 48.8486C56.1333 49.0687 57.1458 49.5278 57.5192 49.6803C62.5558 51.7269 68.3965 51.5238 73.3329 49.2385C74.7239 48.5945 75.9224 47.5649 77.2188 46.7602C77.3666 46.6684 77.4869 46.7445 77.6132 46.8148C78.2074 48.0156 75.7873 50.4189 74.8511 51.0621C72.6529 52.5723 70.4294 53.2814 67.8545 53.5917C65.9996 53.8003 64.1283 53.7788 62.2781 53.5274C58.8368 53.0502 53.662 51.3179 50.8298 49.0724C50.1524 48.5353 49.5765 47.6071 49.5235 46.7025C49.4766 45.9 49.45 45.3111 49.9547 44.6722C50.9782 43.3762 52.1663 43.5085 53.5444 43.2102C54.1519 43.0793 54.7405 42.8634 55.2949 42.5679C56.8564 41.7392 57.9133 40.7369 59.1216 39.4138C60.8892 37.4786 62.1626 34.8058 64.9174 34.5087Z" fill="url(#paint3_linear_117_1697)"/>
<path d="M80.9807 39.1945C81.6104 39.1168 83.736 39.0074 83.9781 39.7823C83.7528 40.0518 82.151 40.1367 81.5082 40.3057C81.2216 40.3881 78.8274 41.6313 78.7528 40.7059C78.6741 39.7294 80.277 39.3264 80.9807 39.1945Z" fill="#FECC2A"/>
<path d="M63.834 38.0289C64.4237 37.7417 66.5879 39.3563 65.6385 40.2153C64.9237 40.7417 62.7207 38.5711 63.834 38.0289Z" fill="#B85A06"/>
</g>
<defs>
<filter id="filter0_f_117_1697" x="41.7168" y="53.1548" width="43.8691" height="31.4985" filterUnits="userSpaceOnUse" color-interpolation-filters="sRGB">
<feFlood flood-opacity="0" result="BackgroundImageFix"/>
<feBlend mode="normal" in="SourceGraphic" in2="BackgroundImageFix" result="shape"/>
<feGaussianBlur stdDeviation="6" result="effect1_foregroundBlur_117_1697"/>
</filter>
<filter id="filter1_f_117_1697" x="28.9971" y="16.3213" width="22.9648" height="31.1714" filterUnits="userSpaceOnUse" color-interpolation-filters="sRGB">
<feFlood flood-opacity="0" result="BackgroundImageFix"/>
<feBlend mode="normal" in="SourceGraphic" in2="BackgroundImageFix" result="shape"/>
<feGaussianBlur stdDeviation="2" result="effect1_foregroundBlur_117_1697"/>
</filter>
<linearGradient id="paint0_linear_117_1697" x1="18.2929" y1="80.302" x2="81.6206" y2="29.2808" gradientUnits="userSpaceOnUse">
<stop stop-color="#19304E"/>
<stop offset="1" stop-color="#355278"/>
</linearGradient>
<radialGradient id="paint1_radial_117_1697" cx="0" cy="0" r="1" gradientUnits="userSpaceOnUse" gradientTransform="translate(63.0001 67.5001) rotate(-168.366) scale(17.3566 13.1031)">
<stop stop-color="#355278"/>
<stop offset="1" stop-color="#355278" stop-opacity="0"/>
</radialGradient>
<radialGradient id="paint2_radial_117_1697" cx="0" cy="0" r="1" gradientUnits="userSpaceOnUse" gradientTransform="translate(38.5001 29.5001) rotate(113.199) scale(19.0394 14.3736)">
<stop offset="0.023271" stop-color="#426CE1" stop-opacity="0"/>
<stop offset="0.754808" stop-color="#1F3A5A"/>
</radialGradient>
<linearGradient id="paint3_linear_117_1697" x1="68.5015" y1="53.4082" x2="66.9684" y2="34.4258" gradientUnits="userSpaceOnUse">
<stop stop-color="#F8870A"/>
<stop offset="1" stop-color="#FFBC14"/>
</linearGradient>
<clipPath id="clip0_117_1697">
<rect width="87.8247" height="94.6064" fill="white"/>
</clipPath>
</defs>
</svg>
