<svg width="51" height="51" viewBox="0 0 51 51" fill="none" xmlns="http://www.w3.org/2000/svg">
<path d="M26.2813 50.7503C19.311 50.7503 12.6263 47.9814 7.6976 43.0527C2.76891 38.124 0 31.4393 0 24.469C0 13.8206 6.11719 4.27325 15.5886 0.150946C15.9224 0.00546446 16.2923 -0.0361012 16.6501 0.0316658C17.0079 0.0994329 17.3369 0.27339 17.5944 0.53087C17.8519 0.78835 18.0259 1.11741 18.0936 1.47518C18.1614 1.83296 18.1198 2.20284 17.9743 2.53665C16.8868 5.03337 16.3125 8.2313 16.3125 11.7815C16.3125 24.2742 26.4761 34.4378 38.9688 34.4378C42.519 34.4378 45.7169 33.8634 48.2136 32.7759C48.5474 32.6305 48.9173 32.5889 49.2751 32.6567C49.6329 32.7244 49.9619 32.8984 50.2194 33.1559C50.4769 33.4133 50.6509 33.7424 50.7186 34.1002C50.7864 34.458 50.7448 34.8278 50.5993 35.1617C46.477 44.6331 36.9297 50.7503 26.2813 50.7503Z" fill="url(#paint0_linear_266_5097)"/>
<defs>
<linearGradient id="paint0_linear_266_5097" x1="50.7503" y1="25.3751" x2="0" y2="25.3751" gradientUnits="userSpaceOnUse">
<stop stop-color="#F6F9C4"/>
<stop offset="1" stop-color="#FBFFE7"/>
</linearGradient>
</defs>
</svg>
