<svg width="16" height="18" viewBox="0 0 16 18" fill="none" xmlns="http://www.w3.org/2000/svg">
<path d="M14.042 8.25C14.042 11.5637 11.3131 14.25 7.9468 14.25C4.58049 14.25 1.85156 11.5637 1.85156 8.25C1.85156 4.93629 4.58049 2.25 7.9468 2.25C11.3131 2.25 14.042 4.93629 14.042 8.25Z" fill="#DCA16A"/>
<path fill-rule="evenodd" clip-rule="evenodd" d="M14.4939 8.25011C14.4939 11.8093 11.5628 14.6946 7.94713 14.6946C4.33146 14.6946 1.40039 11.8093 1.40039 8.25011C1.40039 4.69094 4.33146 1.80566 7.94713 1.80566C11.5628 1.80566 14.4939 4.69094 14.4939 8.25011ZM7.94713 14.2501C11.3134 14.2501 14.0424 11.5638 14.0424 8.25011C14.0424 4.9364 11.3134 2.25011 7.94713 2.25011C4.58082 2.25011 1.85189 4.9364 1.85189 8.25011C1.85189 11.5638 4.58082 14.2501 7.94713 14.2501Z" fill="#C38144"/>
<path fill-rule="evenodd" clip-rule="evenodd" d="M2.30336 8.47217C2.17868 8.47217 2.07761 8.37268 2.07761 8.24995C2.07761 5.05897 4.70547 2.47217 7.9471 2.47217C8.07178 2.47217 8.17285 2.57166 8.17285 2.69439C8.17285 2.81712 8.07178 2.91661 7.9471 2.91661C4.95483 2.91661 2.52911 5.30443 2.52911 8.24995C2.52911 8.37268 2.42804 8.47217 2.30336 8.47217Z" fill="#F0B57F"/>
<path fill-rule="evenodd" clip-rule="evenodd" d="M13.5902 8.02783C13.7149 8.02783 13.8159 8.12732 13.8159 8.25005C13.8159 11.441 11.1881 14.0278 7.94645 14.0278C7.82177 14.0278 7.7207 13.9283 7.7207 13.8056C7.7207 13.6829 7.82177 13.5834 7.94645 13.5834C10.9387 13.5834 13.3644 11.1956 13.3644 8.25005C13.3644 8.12732 13.4655 8.02783 13.5902 8.02783Z" fill="#CF945D"/>
<path d="M12.4616 8.25011C12.4616 10.7047 10.4402 12.6946 7.94663 12.6946C5.45307 12.6946 3.43164 10.7047 3.43164 8.25011C3.43164 5.79551 5.45307 3.80566 7.94663 3.80566C10.4402 3.80566 12.4616 5.79551 12.4616 8.25011Z" fill="#F7BA82"/>
<path fill-rule="evenodd" clip-rule="evenodd" d="M12.9135 8.24997C12.9135 10.95 10.6899 13.1389 7.94696 13.1389C5.20404 13.1389 2.98047 10.95 2.98047 8.24997C2.98047 5.54991 5.20404 3.36108 7.94696 3.36108C10.6899 3.36108 12.9135 5.54991 12.9135 8.24997ZM7.94696 12.6944C10.4405 12.6944 12.462 10.7046 12.462 8.24997C12.462 5.79537 10.4405 3.80553 7.94696 3.80553C5.4534 3.80553 3.43197 5.79537 3.43197 8.24997C3.43197 10.7046 5.4534 12.6944 7.94696 12.6944Z" fill="#C38144"/>
<path fill-rule="evenodd" clip-rule="evenodd" d="M7.94709 12.0277C10.0666 12.0277 11.7848 10.3364 11.7848 8.24995C11.7848 8.12722 11.8859 8.02772 12.0106 8.02772C12.1353 8.02772 12.2363 8.12722 12.2363 8.24995C12.2363 10.5818 10.316 12.4722 7.94709 12.4722C7.82241 12.4722 7.72134 12.3727 7.72134 12.2499C7.72134 12.1272 7.82241 12.0277 7.94709 12.0277Z" fill="#E6A66C"/>
<path fill-rule="evenodd" clip-rule="evenodd" d="M7.94647 4.47228C5.82694 4.47228 4.10873 6.16365 4.10873 8.25005C4.10873 8.37278 4.00765 8.47228 3.88298 8.47228C3.7583 8.47228 3.65723 8.37278 3.65723 8.25005C3.65723 5.91819 5.57759 4.02783 7.94647 4.02783C8.07115 4.02783 8.17222 4.12732 8.17222 4.25005C8.17222 4.37278 8.07115 4.47228 7.94647 4.47228Z" fill="#FFD5AE"/>
<path d="M1.04693 14.1659L0.465452 13.0211C0.402128 12.8964 0.494222 12.7498 0.635818 12.7498L3.18476 12.7498C3.28996 12.7498 3.37524 12.8337 3.37524 12.9373L3.37524 15.5623C3.37524 15.6658 3.28996 15.7498 3.18476 15.7498L0.635818 15.7498C0.494222 15.7498 0.402128 15.6031 0.465452 15.4784L1.04693 14.3336C1.07375 14.2808 1.07375 14.2187 1.04693 14.1659Z" fill="#C52229"/>
<path d="M14.8464 14.1659L15.4279 13.0211C15.4912 12.8964 15.3991 12.7498 15.2575 12.7498L12.7086 12.7498C12.6034 12.7498 12.5181 12.8337 12.5181 12.9373L12.5181 15.5623C12.5181 15.6658 12.6034 15.7498 12.7086 15.7498L15.2575 15.7498C15.3991 15.7498 15.4912 15.6031 15.4279 15.4784L14.8464 14.3336C14.8196 14.2808 14.8196 14.2187 14.8464 14.1659Z" fill="#C52229"/>
<path fill-rule="evenodd" clip-rule="evenodd" d="M0.663025 14.2498L0.124134 13.1888C-0.0658369 12.8148 0.210442 12.3748 0.635235 12.3748L3.18418 12.3748C3.49977 12.3748 3.75561 12.6266 3.75561 12.9373L3.75561 15.5623C3.75561 15.8729 3.49977 16.1248 3.18418 16.1248L0.635235 16.1248C0.210441 16.1248 -0.0658371 15.6847 0.124134 15.3107L0.663025 14.2498ZM0.705506 14.3334C0.705544 14.3335 0.705581 14.3335 0.705619 14.3336L0.875986 14.2498L0.705616 14.3336L0.705506 14.3334ZM15.2291 14.2498L15.768 13.1888C15.958 12.8148 15.6817 12.3748 15.2569 12.3748L12.708 12.3748C12.3924 12.3748 12.1366 12.6266 12.1366 12.9373L12.1366 15.5623C12.1366 15.8729 12.3924 16.1248 12.708 16.1248L15.2569 16.1248C15.6817 16.1248 15.958 15.6847 15.768 15.3107L15.2291 14.2498ZM15.4273 13.0211L14.8458 14.1659C14.819 14.2187 14.819 14.2808 14.8458 14.3336L15.4273 15.4784C15.4906 15.6031 15.3985 15.7498 15.2569 15.7498L12.708 15.7498C12.6028 15.7498 12.5175 15.6658 12.5175 15.5623L12.5175 12.9373C12.5175 12.8337 12.6028 12.7498 12.708 12.7498L15.2569 12.7498C15.3985 12.7498 15.4906 12.8964 15.4273 13.0211ZM0.464869 13.0211L1.04635 14.1659C1.07316 14.2187 1.07316 14.2808 1.04635 14.3336L0.464868 15.4784C0.401544 15.6031 0.493637 15.7498 0.635235 15.7498L3.18418 15.7498C3.28938 15.7498 3.37466 15.6658 3.37466 15.5623L3.37466 12.9373C3.37466 12.8337 3.28938 12.7498 3.18418 12.7498L0.635235 12.7498C0.493637 12.7498 0.401545 12.8964 0.464869 13.0211Z" fill="#9B0F15"/>
<path fill-rule="evenodd" clip-rule="evenodd" d="M0.73734 12.9193C0.772221 12.8648 0.833064 12.8318 0.898484 12.8318H1.70801C1.81321 12.8318 1.89848 12.9157 1.89848 13.0193C1.89848 13.1228 1.81321 13.2068 1.70801 13.2068H1.20072L1.59413 14.0165C1.63952 14.1099 1.59938 14.2219 1.50448 14.2666C1.40957 14.3112 1.29585 14.2717 1.25046 14.1783L0.726649 13.1002C0.698423 13.0421 0.70246 12.9738 0.73734 12.9193Z" fill="#DF3840"/>
<path d="M13.2793 14.8123L13.2793 12.1873C13.2793 12.0837 13.194 11.9998 13.0888 11.9998L2.80311 11.9998C2.69791 11.9998 2.61263 12.0837 2.61263 12.1873L2.61263 14.8123C2.61263 14.9158 2.69791 14.9998 2.80311 14.9998L13.0888 14.9998C13.194 14.9998 13.2793 14.9158 13.2793 14.8123Z" fill="#F1333B"/>
<path fill-rule="evenodd" clip-rule="evenodd" d="M13.6602 12.1873L13.6602 14.8123C13.6602 15.1229 13.4043 15.3748 13.0887 15.3748L2.80301 15.3748C2.48742 15.3748 2.23159 15.1229 2.23159 14.8123L2.23159 12.1873C2.23159 11.8766 2.48742 11.6248 2.80301 11.6248L13.0887 11.6248C13.4043 11.6248 13.6602 11.8766 13.6602 12.1873ZM13.2792 12.1873L13.2792 14.8123C13.2792 14.9158 13.1939 14.9998 13.0887 14.9998L2.80301 14.9998C2.69782 14.9998 2.61254 14.9158 2.61254 14.8123L2.61254 12.1873C2.61254 12.0837 2.69782 11.9998 2.80301 11.9998L13.0887 11.9998C13.1939 11.9998 13.2792 12.0837 13.2792 12.1873Z" fill="#9B0F15"/>
<path d="M12.7529 13.5709C12.6451 13.5709 12.5576 13.4869 12.5576 13.3834C12.5576 13.2798 12.6451 13.1958 12.7529 13.1958C12.8608 13.1958 12.9482 13.2798 12.9482 13.3834C12.9482 13.4869 12.8608 13.5709 12.7529 13.5709Z" fill="#DB1B24"/>
<path d="M12.01 13.4959C11.8758 13.4959 11.7671 13.3914 11.7671 13.2626C11.7671 13.1337 11.8758 13.0293 12.01 13.0293C12.1442 13.0293 12.2529 13.1337 12.2529 13.2626C12.2529 13.3914 12.1442 13.4959 12.01 13.4959Z" fill="#DB1B24"/>
<path d="M12.3414 14.0294C12.2743 14.0294 12.22 13.9772 12.22 13.9128C12.22 13.8484 12.2743 13.7961 12.3414 13.7961C12.4085 13.7961 12.4629 13.8484 12.4629 13.9128C12.4629 13.9772 12.4085 14.0294 12.3414 14.0294Z" fill="#DB1B24"/>
<path d="M12.1315 12.7956C12.0644 12.7956 12.01 12.7433 12.01 12.6789C12.01 12.6145 12.0644 12.5623 12.1315 12.5623C12.1985 12.5623 12.2529 12.6145 12.2529 12.6789C12.2529 12.7433 12.1985 12.7956 12.1315 12.7956Z" fill="#DB1B24"/>
<path d="M11.4938 13.9127C11.4267 13.9127 11.3723 13.8605 11.3723 13.7961C11.3723 13.7317 11.4267 13.6794 11.4938 13.6794C11.5609 13.6794 11.6152 13.7317 11.6152 13.7961C11.6152 13.8605 11.5609 13.9127 11.4938 13.9127Z" fill="#DB1B24"/>
<path d="M11.3717 13.3124C11.3046 13.3124 11.2502 13.2602 11.2502 13.1958C11.2502 13.1313 11.3046 13.0791 11.3717 13.0791C11.4388 13.0791 11.4932 13.1313 11.4932 13.1958C11.4932 13.2602 11.4388 13.3124 11.3717 13.3124Z" fill="#DB1B24"/>
<path d="M10.5436 14.6657C10.4765 14.6657 10.4221 14.6134 10.4221 14.549C10.4221 14.4846 10.4765 14.4324 10.5436 14.4324C10.6107 14.4324 10.665 14.4846 10.665 14.549C10.665 14.6134 10.6107 14.6657 10.5436 14.6657Z" fill="#DB1B24"/>
<path d="M12.9606 14.2204C12.8935 14.2204 12.8391 14.1681 12.8391 14.1037C12.8391 14.0393 12.8935 13.9871 12.9606 13.9871C13.0276 13.9871 13.082 14.0393 13.082 14.1037C13.082 14.1681 13.0276 14.2204 12.9606 14.2204Z" fill="#DB1B24"/>
<path d="M11.8121 14.4759C11.7029 14.4759 11.6144 14.3909 11.6144 14.286C11.6144 14.1812 11.7029 14.0962 11.8121 14.0962C11.9213 14.0962 12.0098 14.1812 12.0098 14.286C12.0098 14.3909 11.9213 14.4759 11.8121 14.4759Z" fill="#DB1B24"/>
<path d="M12.6607 14.6656C12.5515 14.6656 12.463 14.5806 12.463 14.4757C12.463 14.3709 12.5515 14.2859 12.6607 14.2859C12.7699 14.2859 12.8584 14.3709 12.8584 14.4757C12.8584 14.5806 12.7699 14.6656 12.6607 14.6656Z" fill="#DB1B24"/>
<path d="M10.9312 14.2923C10.8221 14.2923 10.7335 14.2073 10.7335 14.1024C10.7335 13.9976 10.8221 13.9126 10.9312 13.9126C11.0404 13.9126 11.1289 13.9976 11.1289 14.1024C11.1289 14.2073 11.0404 14.2923 10.9312 14.2923Z" fill="#DB1B24"/>
<path d="M11.2506 14.7233C11.1835 14.7233 11.1291 14.6711 11.1291 14.6066C11.1291 14.5422 11.1835 14.49 11.2506 14.49C11.3177 14.49 11.3721 14.5422 11.3721 14.6066C11.3721 14.6711 11.3177 14.7233 11.2506 14.7233Z" fill="#DB1B24"/>
<path fill-rule="evenodd" clip-rule="evenodd" d="M2.73145 12.2693C2.73145 12.1657 2.81672 12.0818 2.92192 12.0818H10.0648C10.17 12.0818 10.2553 12.1657 10.2553 12.2693C10.2553 12.3728 10.17 12.4568 10.0648 12.4568H3.1124V13.7693C3.1124 13.8728 3.02712 13.9568 2.92192 13.9568C2.81672 13.9568 2.73145 13.8728 2.73145 13.7693V12.2693Z" fill="#FE666D"/>
<path d="M7.3265 7.74761H7.80936C8.0393 7.74761 8.20966 7.69102 8.32045 7.57785C8.43123 7.46468 8.48663 7.31447 8.48663 7.12723C8.48663 6.94615 8.43123 6.8052 8.32045 6.70438C8.21175 6.60355 8.06125 6.55314 7.86894 6.55314C7.69544 6.55314 7.55016 6.60046 7.4331 6.69512C7.31605 6.78771 7.25752 6.90911 7.25752 7.05932H6.35136C6.35136 6.82475 6.41512 6.61487 6.54263 6.42968C6.67223 6.24243 6.85199 6.09634 7.08193 5.9914C7.31395 5.88645 7.56897 5.83398 7.84699 5.83398C8.32985 5.83398 8.7082 5.94818 8.98203 6.17659C9.25587 6.40293 9.39278 6.71569 9.39278 7.11488C9.39278 7.32065 9.32903 7.50995 9.20152 7.68279C9.07401 7.85564 8.90678 7.98836 8.69984 8.08095C8.95695 8.17149 9.14821 8.30729 9.27363 8.48837C9.40114 8.66944 9.4649 8.88344 9.4649 9.13036C9.4649 9.52955 9.31648 9.84951 9.01966 10.0903C8.72492 10.331 8.33403 10.4514 7.84699 10.4514C7.3913 10.4514 7.01817 10.3331 6.72762 10.0964C6.43915 9.8598 6.29492 9.54704 6.29492 9.15814H7.20108C7.20108 9.32687 7.26483 9.46473 7.39234 9.57173C7.52194 9.67873 7.68081 9.73223 7.86894 9.73223C8.08424 9.73223 8.25251 9.67667 8.37375 9.56556C8.49708 9.45238 8.55874 9.3032 8.55874 9.11801C8.55874 8.66944 8.3079 8.44516 7.80623 8.44516H7.3265V7.74761Z" fill="#FFD5AE"/>
<path fill-rule="evenodd" clip-rule="evenodd" d="M6.81697 7.58599H6.35133C6.05579 7.58599 5.8162 7.35015 5.8162 7.05923C5.8162 6.72469 5.90905 6.41083 6.09963 6.13404L6.10035 6.13299C6.28978 5.85931 6.54832 5.6542 6.85681 5.51341L6.85848 5.51264C7.16662 5.37328 7.49875 5.30713 7.84695 5.30713C8.4121 5.30713 8.9277 5.44122 9.32703 5.77385C9.73841 6.11434 9.92787 6.58375 9.92787 7.11479C9.92787 7.4362 9.82566 7.73307 9.63448 7.99222C9.6221 8.009 9.60947 8.0255 9.59658 8.04173C9.63869 8.08804 9.6781 8.13736 9.71454 8.18981C9.91069 8.46911 9.99999 8.79023 9.99999 9.13027C9.99999 9.67666 9.78786 10.1492 9.36067 10.4961C8.94633 10.8342 8.42382 10.978 7.84695 10.978C7.29369 10.978 6.79188 10.8324 6.38647 10.5022L6.38501 10.501C5.96743 10.1585 5.75977 9.69393 5.75977 9.15804C5.75977 8.86712 5.99935 8.63128 6.29489 8.63128H6.82574C6.80351 8.57339 6.79134 8.51062 6.79134 8.44506V7.74752C6.79134 7.69117 6.80033 7.63689 6.81697 7.58599ZM7.70177 8.97183C7.724 9.02972 7.73617 9.09248 7.73617 9.15804C7.73617 9.16244 7.73636 9.16581 7.73658 9.16825C7.73702 9.16865 7.7375 9.16908 7.73803 9.16953C7.7603 9.18745 7.79358 9.20537 7.8689 9.20537C7.93061 9.20537 7.96738 9.19733 7.98642 9.19105C8.00227 9.18581 8.00748 9.18139 8.00883 9.18015M7.70177 8.97183H7.80619C7.93919 8.97183 7.99339 8.99433 8.00819 9.00214C8.00852 9.00295 8.0089 9.00391 8.00931 9.00502C8.01432 9.01844 8.02359 9.05273 8.02359 9.11792C8.02359 9.15255 8.01796 9.16735 8.0168 9.17017C8.01608 9.1719 8.01555 9.17276 8.01505 9.17346C8.01453 9.1742 8.01273 9.17655 8.00883 9.18015M9.01963 10.0902C9.31645 9.84942 9.46486 9.52945 9.46486 9.13027C9.46486 8.88335 9.40111 8.66935 9.2736 8.48828C9.25295 8.45846 9.23052 8.42988 9.2063 8.40252C9.08342 8.26371 8.91459 8.15649 8.69981 8.08086C8.89336 7.99425 9.05217 7.87255 9.17624 7.71574C9.18482 7.70489 9.19324 7.69388 9.20148 7.6827C9.32899 7.50986 9.39275 7.32055 9.39275 7.11479C9.39275 6.7156 9.25583 6.40283 8.982 6.17649C8.70817 5.94809 8.32982 5.83389 7.84695 5.83389C7.56894 5.83389 7.31392 5.88636 7.0819 5.9913C6.85196 6.09624 6.67219 6.24234 6.54259 6.42958C6.51953 6.46307 6.49856 6.49737 6.47967 6.53247C6.39411 6.69148 6.35133 6.86707 6.35133 7.05923H7.25748C7.25748 6.90902 7.31601 6.78762 7.43307 6.69502C7.55013 6.60037 7.69541 6.55304 7.8689 6.55304C8.06121 6.55304 8.21171 6.60346 8.32041 6.70428C8.4312 6.80511 8.48659 6.94606 8.48659 7.12713C8.48659 7.31438 8.4312 7.46459 8.32041 7.57776C8.20962 7.69093 8.03926 7.74752 7.80933 7.74752H7.32646V8.44506H7.80619C8.30787 8.44506 8.55871 8.66935 8.55871 9.11792C8.55871 9.30311 8.49704 9.45229 8.37372 9.56546C8.25248 9.67658 8.08421 9.73213 7.8689 9.73213C7.68077 9.73213 7.52191 9.67863 7.39231 9.57163C7.2648 9.46464 7.20104 9.32677 7.20104 9.15804H6.29489C6.29489 9.35271 6.33103 9.52829 6.4033 9.68481C6.47542 9.84098 6.58351 9.97815 6.72759 10.0963C7.01814 10.333 7.39126 10.4513 7.84695 10.4513C8.334 10.4513 8.72489 10.3309 9.01963 10.0902ZM7.76698 7.22075C7.78047 7.17947 7.78894 7.13596 7.79165 7.09093C7.80581 7.0852 7.82921 7.07981 7.8689 7.07981C7.91157 7.07981 7.93664 7.08469 7.94881 7.08807C7.95015 7.09633 7.95147 7.10904 7.95147 7.12713C7.95147 7.16977 7.94519 7.19195 7.94204 7.20048C7.9413 7.20249 7.94061 7.20411 7.93995 7.20546C7.93948 7.20562 7.93899 7.20579 7.93846 7.20596C7.92132 7.21166 7.88153 7.22075 7.80933 7.22075H7.76698Z" fill="#C28044"/>
</svg>
