<svg width="16" height="19" viewBox="0 0 16 19" fill="none" xmlns="http://www.w3.org/2000/svg">
<path d="M12.6903 1.64331C12.9007 1.64331 13.0713 1.81387 13.0713 2.02426L13.0713 4.30998C13.0713 4.52037 12.9007 4.69093 12.6903 4.69093L3.16653 4.69093C2.95613 4.69093 2.78557 4.52037 2.78557 4.30998L2.78557 2.02426C2.78557 1.81387 2.95613 1.64331 3.16653 1.64331L12.6903 1.64331Z" fill="#C52229"/>
<path fill-rule="evenodd" clip-rule="evenodd" d="M13.4521 2.02411L13.4521 4.30983C13.4521 4.73061 13.111 5.07173 12.6902 5.07173L3.16643 5.07173C2.74565 5.07173 2.40453 4.73061 2.40453 4.30983L2.40453 2.02411C2.40453 1.60332 2.74565 1.26221 3.16643 1.26221L12.6902 1.26221C13.111 1.26221 13.4521 1.60332 13.4521 2.02411ZM13.0712 2.02411C13.0712 1.81372 12.9006 1.64316 12.6902 1.64316L3.16643 1.64316C2.95604 1.64316 2.78548 1.81372 2.78548 2.02411L2.78548 4.30983C2.78548 4.52022 2.95604 4.69078 3.16643 4.69078L12.6902 4.69078C12.9006 4.69078 13.0712 4.52022 13.0712 4.30983L13.0712 2.02411Z" fill="#9B0F15"/>
<path fill-rule="evenodd" clip-rule="evenodd" d="M3.13184 1.83379C3.13184 1.72859 3.21712 1.64331 3.32231 1.64331H12.6428C12.748 1.64331 12.8333 1.72859 12.8333 1.83379C12.8333 1.93898 12.748 2.02426 12.6428 2.02426H3.32231C3.21712 2.02426 3.13184 1.93898 3.13184 1.83379Z" fill="#DF3840"/>
<path fill-rule="evenodd" clip-rule="evenodd" d="M3.05957 2.94072C3.05957 2.83552 3.14485 2.75024 3.25005 2.75024H12.5706C12.6758 2.75024 12.761 2.83552 12.761 2.94072C12.761 3.04592 12.6758 3.1312 12.5706 3.1312H3.25005C3.14485 3.1312 3.05957 3.04592 3.05957 2.94072Z" fill="#AF1B22"/>
<path fill-rule="evenodd" clip-rule="evenodd" d="M3.05957 2.23833C3.05957 2.13313 3.14485 2.04785 3.25005 2.04785H12.5706C12.6758 2.04785 12.761 2.13313 12.761 2.23833C12.761 2.34352 12.6758 2.4288 12.5706 2.4288H3.25005C3.14485 2.4288 3.05957 2.34352 3.05957 2.23833Z" fill="#AF1B22"/>
<path fill-rule="evenodd" clip-rule="evenodd" d="M3.05957 3.63139C3.05957 3.5262 3.14485 3.44092 3.25005 3.44092H12.5706C12.6758 3.44092 12.761 3.5262 12.761 3.63139C12.761 3.73659 12.6758 3.82187 12.5706 3.82187H3.25005C3.14485 3.82187 3.05957 3.73659 3.05957 3.63139Z" fill="#AF1B22"/>
<path fill-rule="evenodd" clip-rule="evenodd" d="M3.13184 4.26225C3.13184 4.15706 3.21712 4.07178 3.32231 4.07178H12.6428C12.748 4.07178 12.8333 4.15706 12.8333 4.26225C12.8333 4.36745 12.748 4.45273 12.6428 4.45273H3.32231C3.21712 4.45273 3.13184 4.36745 3.13184 4.26225Z" fill="#AF1B22"/>
<path d="M3.3768 1.79306C3.22802 1.64428 2.98682 1.64428 2.83805 1.79306L1.2218 3.4093C1.07303 3.55807 1.07303 3.79928 1.2218 3.94805L7.71946 10.4457C7.86823 10.5945 8.10944 10.5945 8.25821 10.4457L9.87445 8.82946C10.0232 8.68069 10.0232 8.43948 9.87445 8.29071L3.3768 1.79306Z" fill="#F1333B"/>
<path fill-rule="evenodd" clip-rule="evenodd" d="M2.56867 1.52361L0.95243 3.13986C0.654888 3.4374 0.654888 3.91981 0.95243 4.21735L7.45009 10.715C7.74763 11.0126 8.23004 11.0126 8.52758 10.715L10.1438 9.09876C10.4414 8.80122 10.4414 8.31881 10.1438 8.02127L3.64617 1.52361C3.34863 1.22607 2.86622 1.22607 2.56867 1.52361ZM2.83805 1.79299C2.98682 1.64421 3.22802 1.64421 3.3768 1.79299L9.87445 8.29064C10.0232 8.43941 10.0232 8.68062 9.87445 8.82939L8.25821 10.4456C8.10944 10.5944 7.86823 10.5944 7.71946 10.4456L1.2218 3.94798C1.07303 3.79921 1.07303 3.558 1.2218 3.40923L2.83805 1.79299Z" fill="#9B0F15"/>
<path d="M12.4809 1.80044C12.629 1.64818 12.8731 1.6465 13.0233 1.79672L14.6395 3.41291C14.7868 3.56024 14.7884 3.7986 14.6431 3.94794L8.32857 10.4382C8.18043 10.5905 7.93637 10.5921 7.78615 10.4419L6.16996 8.82573C6.02263 8.6784 6.02099 8.44004 6.16629 8.2907L12.4809 1.80044Z" fill="#F1333B"/>
<path fill-rule="evenodd" clip-rule="evenodd" d="M13.2927 1.52752L14.9088 3.14371C15.2035 3.43837 15.2068 3.91509 14.9162 4.21377L8.60162 10.704C8.30533 11.0086 7.81721 11.0119 7.51678 10.7115L5.90059 9.09528C5.60593 8.80062 5.60266 8.3239 5.89325 8.02523L12.2078 1.53496C12.5041 1.23043 12.9922 1.22709 13.2927 1.52752ZM13.0233 1.79689C12.8731 1.64668 12.629 1.64835 12.4809 1.80061L6.16629 8.29088C6.021 8.44022 6.02263 8.67858 6.16996 8.82591L7.78615 10.4421C7.93637 10.5923 8.18043 10.5906 8.32857 10.4384L14.6431 3.94811C14.7884 3.79878 14.7868 3.56042 14.6395 3.41309L13.0233 1.79689Z" fill="#9B0F15"/>
<path fill-rule="evenodd" clip-rule="evenodd" d="M12.7887 1.9602C12.8634 2.03425 12.864 2.15485 12.7899 2.22958L8.89707 6.15815C8.82302 6.23287 8.70242 6.23342 8.62769 6.15938C8.55297 6.08533 8.55242 5.96473 8.62646 5.89001L12.5193 1.96143C12.5934 1.88671 12.714 1.88616 12.7887 1.9602Z" fill="#FE666D"/>
<path fill-rule="evenodd" clip-rule="evenodd" d="M1.27063 3.55603C1.34502 3.48165 1.46562 3.48165 1.54001 3.55603L4.0162 6.03222C4.09058 6.10661 4.09058 6.22721 4.0162 6.3016C3.94181 6.37598 3.82121 6.37598 3.74682 6.3016L1.27063 3.82541C1.19625 3.75102 1.19625 3.63042 1.27063 3.55603Z" fill="#FE666D"/>
<path d="M13.564 3.05257C13.4877 3.12884 13.3656 3.13035 13.2912 3.05594C13.2167 2.98153 13.2183 2.85938 13.2945 2.78312C13.3708 2.70685 13.4929 2.70534 13.5673 2.77975C13.6418 2.85416 13.6402 2.9763 13.564 3.05257Z" fill="#DB1B24"/>
<path d="M12.9847 3.52404C12.8898 3.61891 12.7379 3.62079 12.6453 3.52823C12.5528 3.43568 12.5546 3.28374 12.6495 3.18887C12.7444 3.094 12.8963 3.09212 12.9889 3.18468C13.0814 3.27723 13.0796 3.42917 12.9847 3.52404Z" fill="#DB1B24"/>
<path d="M13.6022 3.67315C13.5548 3.72059 13.4788 3.72153 13.4325 3.67525C13.3862 3.62897 13.3872 3.553 13.4346 3.50557C13.4821 3.45813 13.558 3.45719 13.6043 3.50347C13.6506 3.54975 13.6496 3.62572 13.6022 3.67315Z" fill="#DB1B24"/>
<path d="M12.2301 5.28229C12.1827 5.32972 12.1067 5.33066 12.0605 5.28438C12.0142 5.2381 12.0151 5.16213 12.0625 5.1147C12.11 5.06726 12.186 5.06632 12.2322 5.1126C12.2785 5.15888 12.2776 5.23485 12.2301 5.28229Z" fill="#DB1B24"/>
<path d="M12.9186 4.18902C12.8712 4.23646 12.7952 4.2374 12.7489 4.19112C12.7027 4.14484 12.7036 4.06887 12.751 4.02144C12.7985 3.974 12.8744 3.97306 12.9207 4.01934C12.967 4.06562 12.966 4.14159 12.9186 4.18902Z" fill="#DB1B24"/>
<path d="M12.2282 5.93829C12.1807 5.98573 12.1048 5.98666 12.0585 5.94039C12.0122 5.89411 12.0132 5.81814 12.0606 5.7707C12.108 5.72327 12.184 5.72233 12.2303 5.76861C12.2766 5.81489 12.2756 5.89086 12.2282 5.93829Z" fill="#DB1B24"/>
<path d="M12.402 4.04425C12.3546 4.09168 12.2786 4.09262 12.2323 4.04634C12.1861 4.00007 12.187 3.9241 12.2344 3.87666C12.2819 3.82923 12.3578 3.82829 12.4041 3.87457C12.4504 3.92084 12.4494 3.99681 12.402 4.04425Z" fill="#DB1B24"/>
<path d="M12.7878 5.40118C12.7403 5.44862 12.6643 5.44955 12.6181 5.40328C12.5718 5.357 12.5727 5.28103 12.6202 5.23359C12.6676 5.18616 12.7436 5.18522 12.7898 5.2315C12.8361 5.27778 12.8352 5.35375 12.7878 5.40118Z" fill="#DB1B24"/>
<path d="M14.1774 3.37262C14.13 3.42005 14.054 3.42099 14.0077 3.37471C13.9614 3.32843 13.9624 3.25246 14.0098 3.20503C14.0572 3.15759 14.1332 3.15666 14.1795 3.20293C14.2258 3.24921 14.2248 3.32518 14.1774 3.37262Z" fill="#DB1B24"/>
<path d="M13.549 4.36784C13.4718 4.44504 13.3481 4.44657 13.2728 4.37125C13.1975 4.29594 13.199 4.1723 13.2762 4.0951C13.3534 4.0179 13.4771 4.01638 13.5524 4.09169C13.6277 4.16701 13.6262 4.29065 13.549 4.36784Z" fill="#DB1B24"/>
<path d="M14.2843 3.90471C14.2071 3.98191 14.0835 3.98343 14.0082 3.90812C13.9329 3.8328 13.9344 3.70917 14.0116 3.63197C14.0888 3.55477 14.2124 3.55324 14.2877 3.62856C14.3631 3.70387 14.3615 3.82751 14.2843 3.90471Z" fill="#DB1B24"/>
<path d="M12.7941 4.85905C12.7169 4.93625 12.5933 4.93778 12.5179 4.86246C12.4426 4.78715 12.4442 4.66351 12.5214 4.58631C12.5986 4.50911 12.7222 4.50759 12.7975 4.5829C12.8728 4.65822 12.8713 4.78186 12.7941 4.85905Z" fill="#DB1B24"/>
<path d="M13.3288 4.94293C13.2813 4.99037 13.2054 4.9913 13.1591 4.94502C13.1128 4.89875 13.1137 4.82278 13.1612 4.77534C13.2086 4.72791 13.2846 4.72697 13.3309 4.77325C13.3771 4.81953 13.3762 4.89549 13.3288 4.94293Z" fill="#DB1B24"/>
<path d="M13.1431 11.6192C13.1431 14.4595 10.8406 16.762 8.00028 16.762C5.15996 16.762 2.85742 14.4595 2.85742 11.6192C2.85742 8.77885 5.15996 6.47632 8.00028 6.47632C10.8406 6.47632 13.1431 8.77885 13.1431 11.6192Z" fill="#FFBB0D"/>
<path fill-rule="evenodd" clip-rule="evenodd" d="M13.5242 11.6193C13.5242 14.67 11.0511 17.1431 8.00037 17.1431C4.94966 17.1431 2.47656 14.67 2.47656 11.6193C2.47656 8.56855 4.94966 6.09546 8.00037 6.09546C11.0511 6.09546 13.5242 8.56855 13.5242 11.6193ZM8.00037 16.7621C10.8407 16.7621 13.1432 14.4596 13.1432 11.6193C13.1432 8.77895 10.8407 6.47641 8.00037 6.47641C5.16005 6.47641 2.85751 8.77895 2.85751 11.6193C2.85751 14.4596 5.16005 16.7621 8.00037 16.7621Z" fill="#E89B05"/>
<path fill-rule="evenodd" clip-rule="evenodd" d="M3.23805 11.8096C3.13285 11.8096 3.04757 11.7243 3.04757 11.6191C3.04757 8.88397 5.26483 6.66671 7.99995 6.66671C8.10515 6.66671 8.19043 6.75199 8.19043 6.85719C8.19043 6.96239 8.10515 7.04767 7.99995 7.04767C5.47522 7.04767 3.42853 9.09436 3.42853 11.6191C3.42853 11.7243 3.34325 11.8096 3.23805 11.8096Z" fill="#E8AA0A"/>
<path fill-rule="evenodd" clip-rule="evenodd" d="M12.762 11.4287C12.8671 11.4287 12.9524 11.514 12.9524 11.6192C12.9524 14.3543 10.7352 16.5716 8.00005 16.5716C7.89485 16.5716 7.80957 16.4863 7.80957 16.3811C7.80957 16.2759 7.89485 16.1906 8.00005 16.1906C10.5248 16.1906 12.5715 14.1439 12.5715 11.6192C12.5715 11.514 12.6568 11.4287 12.762 11.4287Z" fill="#E8AA0A"/>
<path d="M11.8095 11.6191C11.8095 13.723 10.1039 15.4286 7.99995 15.4286C5.89601 15.4286 4.19043 13.723 4.19043 11.6191C4.19043 9.51515 5.89601 7.80957 7.99995 7.80957C10.1039 7.80957 11.8095 9.51515 11.8095 11.6191Z" fill="#FFDD28"/>
<path fill-rule="evenodd" clip-rule="evenodd" d="M12.1905 11.6192C12.1905 13.9335 10.3144 15.8097 8.00005 15.8097C5.68571 15.8097 3.80957 13.9335 3.80957 11.6192C3.80957 9.30485 5.68571 7.42871 8.00005 7.42871C10.3144 7.42871 12.1905 9.30485 12.1905 11.6192ZM8.00005 15.4287C10.104 15.4287 11.8096 13.7231 11.8096 11.6192C11.8096 9.51524 10.104 7.80966 8.00005 7.80966C5.8961 7.80966 4.19052 9.51524 4.19052 11.6192C4.19052 13.7231 5.8961 15.4287 8.00005 15.4287Z" fill="#E89B05"/>
<path fill-rule="evenodd" clip-rule="evenodd" d="M8.00009 14.8573C9.78844 14.8573 11.2382 13.4076 11.2382 11.6192C11.2382 11.514 11.3235 11.4288 11.4287 11.4288C11.5339 11.4288 11.6191 11.514 11.6191 11.6192C11.6191 13.618 9.99884 15.2383 8.00009 15.2383C7.8949 15.2383 7.80962 15.153 7.80962 15.0478C7.80962 14.9426 7.8949 14.8573 8.00009 14.8573Z" fill="#ECC704"/>
<path fill-rule="evenodd" clip-rule="evenodd" d="M7.99991 8.3812C6.21156 8.3812 4.76181 9.83094 4.76181 11.6193C4.76181 11.7245 4.67653 11.8098 4.57134 11.8098C4.46614 11.8098 4.38086 11.7245 4.38086 11.6193C4.38086 9.62055 6.00116 8.00024 7.99991 8.00024C8.1051 8.00024 8.19038 8.08552 8.19038 8.19072C8.19038 8.29592 8.1051 8.3812 7.99991 8.3812Z" fill="#FFEF9C"/>
<path d="M8.56164 13.3876H7.81952V10.5269L6.93359 10.8017V10.1982L8.48204 9.64355H8.56164V13.3876Z" fill="#FFEF9C"/>
<path fill-rule="evenodd" clip-rule="evenodd" d="M8.99967 13.3878C8.99967 13.6299 8.80346 13.8261 8.56142 13.8261H7.8193C7.57726 13.8261 7.38104 13.6299 7.38104 13.3878V11.1219L7.06319 11.2205C6.93019 11.2618 6.7855 11.2374 6.6734 11.1548C6.56129 11.0722 6.49512 10.9412 6.49512 10.8019V10.1985C6.49512 10.0134 6.61136 9.84831 6.78558 9.7859L8.33402 9.23124C8.38145 9.21425 8.43144 9.20557 8.48181 9.20557H8.56142C8.80346 9.20557 8.99967 9.40178 8.99967 9.64382V13.3878ZM7.8193 10.5272V13.3878H8.56142V9.64382H8.48181L6.93337 10.1985V10.8019L7.8193 10.5272Z" fill="#E89B05"/>
</svg>
