<svg width="16" height="18" viewBox="0 0 16 18" fill="none" xmlns="http://www.w3.org/2000/svg">
<path d="M13.7862 8.25002C13.7862 11.5637 11.0999 14.25 7.78615 14.25C4.47243 14.25 1.78613 11.5637 1.78613 8.25002C1.78613 4.9363 4.47243 2.25 7.78615 2.25C11.0999 2.25 13.7862 4.9363 13.7862 8.25002Z" fill="#BCCCD2"/>
<path fill-rule="evenodd" clip-rule="evenodd" d="M14.2307 8.25013C14.2307 11.8093 11.3454 14.6946 7.78626 14.6946C4.22708 14.6946 1.3418 11.8093 1.3418 8.25013C1.3418 4.69095 4.22708 1.80566 7.78626 1.80566C11.3454 1.80566 14.2307 4.69095 14.2307 8.25013ZM7.78626 14.2502C11.1 14.2502 13.7863 11.5639 13.7863 8.25013C13.7863 4.93641 11.1 2.25011 7.78626 2.25011C4.47254 2.25011 1.78624 4.93641 1.78624 8.25013C1.78624 11.5639 4.47254 14.2502 7.78626 14.2502Z" fill="#81A5B0"/>
<path fill-rule="evenodd" clip-rule="evenodd" d="M2.23099 8.47217C2.10826 8.47217 2.00877 8.37267 2.00877 8.24994C2.00877 5.05895 4.59558 2.47215 7.78657 2.47215C7.9093 2.47215 8.00879 2.57164 8.00879 2.69437C8.00879 2.8171 7.9093 2.91659 7.78657 2.91659C4.84104 2.91659 2.45321 5.30442 2.45321 8.24994C2.45321 8.37267 2.35372 8.47217 2.23099 8.47217Z" fill="#D0DEE3"/>
<path fill-rule="evenodd" clip-rule="evenodd" d="M13.3413 8.02783C13.464 8.02783 13.5635 8.12732 13.5635 8.25006C13.5635 11.441 10.9767 14.0279 7.7857 14.0279C7.66297 14.0279 7.56348 13.9284 7.56348 13.8056C7.56348 13.6829 7.66297 13.5834 7.7857 13.5834C10.7312 13.5834 13.1191 11.1956 13.1191 8.25006C13.1191 8.12732 13.2185 8.02783 13.3413 8.02783Z" fill="#A2B9C1"/>
<path d="M12.2307 8.25012C12.2307 10.7047 10.2409 12.6946 7.78626 12.6946C5.33165 12.6946 3.3418 10.7047 3.3418 8.25012C3.3418 5.79552 5.33165 3.80566 7.78626 3.80566C10.2409 3.80566 12.2307 5.79552 12.2307 8.25012Z" fill="#C7D4D8"/>
<path fill-rule="evenodd" clip-rule="evenodd" d="M12.6753 8.24999C12.6753 10.9501 10.4864 13.1389 7.78637 13.1389C5.0863 13.1389 2.89746 10.9501 2.89746 8.24999C2.89746 5.54992 5.0863 3.36108 7.78637 3.36108C10.4864 3.36108 12.6753 5.54992 12.6753 8.24999ZM7.78637 12.6945C10.241 12.6945 12.2308 10.7046 12.2308 8.24999C12.2308 5.79538 10.241 3.80553 7.78637 3.80553C5.33176 3.80553 3.34191 5.79538 3.34191 8.24999C3.34191 10.7046 5.33176 12.6945 7.78637 12.6945Z" fill="#81A5B0"/>
<path fill-rule="evenodd" clip-rule="evenodd" d="M7.78655 12.0277C9.87297 12.0277 11.5643 10.3363 11.5643 8.24993C11.5643 8.1272 11.6638 8.02771 11.7866 8.02771C11.9093 8.02771 12.0088 8.1272 12.0088 8.24993C12.0088 10.5818 10.1184 12.4722 7.78655 12.4722C7.66382 12.4722 7.56433 12.3727 7.56433 12.2499C7.56433 12.1272 7.66382 12.0277 7.78655 12.0277Z" fill="#B5C3C8"/>
<path fill-rule="evenodd" clip-rule="evenodd" d="M7.78571 4.47228C5.6993 4.47228 4.00792 6.16365 4.00792 8.25007C4.00792 8.3728 3.90843 8.47229 3.7857 8.47229C3.66297 8.47229 3.56348 8.3728 3.56348 8.25007C3.56348 5.91819 5.45384 4.02783 7.78571 4.02783C7.90844 4.02783 8.00794 4.12732 8.00794 4.25006C8.00794 4.37279 7.90844 4.47228 7.78571 4.47228Z" fill="#D9EAEF"/>
<path d="M0.994562 14.1662L0.422163 13.0214C0.359829 12.8967 0.450483 12.75 0.589869 12.75L3.099 12.75C3.20255 12.75 3.2865 12.8339 3.2865 12.9375L3.2865 15.5625C3.2865 15.6661 3.20255 15.75 3.099 15.75L0.589868 15.75C0.450483 15.75 0.359829 15.6033 0.422163 15.4787L0.994562 14.3339C1.02096 14.2811 1.02096 14.2189 0.994562 14.1662Z" fill="#C52229"/>
<path d="M14.5785 14.1662L15.1509 13.0214C15.2132 12.8967 15.1225 12.75 14.9832 12.75L12.474 12.75C12.3705 12.75 12.2865 12.8339 12.2865 12.9375L12.2865 15.5625C12.2865 15.6661 12.3705 15.75 12.474 15.75L14.9832 15.75C15.1225 15.75 15.2132 15.6033 15.1509 15.4787L14.5785 14.3339C14.5521 14.2811 14.5521 14.2189 14.5785 14.1662Z" fill="#C52229"/>
<path fill-rule="evenodd" clip-rule="evenodd" d="M0.616739 14.25L0.0862665 13.1891C-0.100736 12.8151 0.171227 12.375 0.589384 12.375L3.09851 12.375C3.40917 12.375 3.66101 12.6268 3.66101 12.9375L3.66101 15.5625C3.66101 15.8732 3.40917 16.125 3.09851 16.125L0.589384 16.125C0.171226 16.125 -0.100736 15.685 0.0862664 15.311L0.616739 14.25ZM0.658558 14.3336C0.658595 14.3337 0.65863 14.3338 0.658667 14.3339L0.826375 14.25L0.658665 14.3339L0.658558 14.3336ZM14.9553 14.25L15.4858 13.1891C15.6728 12.8151 15.4008 12.375 14.9827 12.375L12.4735 12.375C12.1629 12.375 11.911 12.6268 11.911 12.9375L11.911 15.5625C11.911 15.8732 12.1629 16.125 12.4735 16.125L14.9827 16.125C15.4008 16.125 15.6728 15.685 15.4858 15.311L14.9553 14.25ZM15.1504 13.0214L14.578 14.1662C14.5516 14.2189 14.5516 14.2811 14.578 14.3339L15.1504 15.4787C15.2127 15.6033 15.1221 15.75 14.9827 15.75L12.4735 15.75C12.37 15.75 12.286 15.6661 12.286 15.5625L12.286 12.9375C12.286 12.8339 12.37 12.75 12.4735 12.75L14.9827 12.75C15.1221 12.75 15.2127 12.8967 15.1504 13.0214ZM0.421679 13.0214L0.994077 14.1662C1.02047 14.2189 1.02047 14.2811 0.994077 14.3339L0.421678 15.4787C0.359343 15.6033 0.449999 15.75 0.589384 15.75L3.09851 15.75C3.20206 15.75 3.28601 15.6661 3.28601 15.5625L3.28601 12.9375C3.28601 12.8339 3.20206 12.75 3.09851 12.75L0.589384 12.75C0.449999 12.75 0.359344 12.8967 0.421679 13.0214Z" fill="#9B0F15"/>
<path fill-rule="evenodd" clip-rule="evenodd" d="M0.690007 12.9196C0.724342 12.8651 0.784235 12.832 0.848634 12.832H1.64551C1.74907 12.832 1.83301 12.916 1.83301 13.0195C1.83301 13.1231 1.74907 13.207 1.64551 13.207H1.14615L1.53341 14.0168C1.57809 14.1102 1.53858 14.2221 1.44516 14.2668C1.35174 14.3115 1.23979 14.272 1.19511 14.1786L0.679483 13.1004C0.651698 13.0423 0.655671 12.974 0.690007 12.9196Z" fill="#DF3840"/>
<path d="M13.0361 14.8125L13.0361 12.1875C13.0361 12.0839 12.9522 12 12.8486 12L2.7236 12C2.62004 12 2.5361 12.0839 2.5361 12.1875L2.5361 14.8125C2.5361 14.9161 2.62004 15 2.7236 15L12.8486 15C12.9522 15 13.0361 14.9161 13.0361 14.8125Z" fill="#F1333B"/>
<path fill-rule="evenodd" clip-rule="evenodd" d="M13.4111 12.1875L13.4111 14.8125C13.4111 15.1232 13.1593 15.375 12.8486 15.375L2.7236 15.375C2.41293 15.375 2.16109 15.1232 2.16109 14.8125L2.16109 12.1875C2.16109 11.8768 2.41293 11.625 2.7236 11.625L12.8486 11.625C13.1593 11.625 13.4111 11.8768 13.4111 12.1875ZM13.0361 12.1875L13.0361 14.8125C13.0361 14.9161 12.9522 15 12.8486 15L2.7236 15C2.62004 15 2.53609 14.9161 2.53609 14.8125L2.53609 12.1875C2.53609 12.0839 2.62004 12 2.7236 12L12.8486 12C12.9522 12 13.0361 12.0839 13.0361 12.1875Z" fill="#9B0F15"/>
<path d="M12.5177 13.5712C12.4115 13.5712 12.3255 13.4872 12.3255 13.3836C12.3255 13.28 12.4115 13.196 12.5177 13.196C12.6239 13.196 12.71 13.28 12.71 13.3836C12.71 13.4872 12.6239 13.5712 12.5177 13.5712Z" fill="#DB1B24"/>
<path d="M11.7863 13.4961C11.6542 13.4961 11.5471 13.3917 11.5471 13.2628C11.5471 13.134 11.6542 13.0295 11.7863 13.0295C11.9183 13.0295 12.0254 13.134 12.0254 13.2628C12.0254 13.3917 11.9183 13.4961 11.7863 13.4961Z" fill="#DB1B24"/>
<path d="M12.1129 14.0297C12.0468 14.0297 11.9933 13.9775 11.9933 13.913C11.9933 13.8486 12.0468 13.7964 12.1129 13.7964C12.1789 13.7964 12.2324 13.8486 12.2324 13.913C12.2324 13.9775 12.1789 14.0297 12.1129 14.0297Z" fill="#DB1B24"/>
<path d="M11.9058 12.7958C11.8398 12.7958 11.7863 12.7436 11.7863 12.6792C11.7863 12.6147 11.8398 12.5625 11.9058 12.5625C11.9719 12.5625 12.0254 12.6147 12.0254 12.6792C12.0254 12.7436 11.9719 12.7958 11.9058 12.7958Z" fill="#DB1B24"/>
<path d="M11.2779 13.913C11.2119 13.913 11.1583 13.8608 11.1583 13.7963C11.1583 13.7319 11.2119 13.6797 11.2779 13.6797C11.3439 13.6797 11.3975 13.7319 11.3975 13.7963C11.3975 13.8608 11.3439 13.913 11.2779 13.913Z" fill="#DB1B24"/>
<path d="M11.1588 13.3126C11.0927 13.3126 11.0392 13.2604 11.0392 13.196C11.0392 13.1316 11.0927 13.0793 11.1588 13.0793C11.2248 13.0793 11.2783 13.1316 11.2783 13.196C11.2783 13.2604 11.2248 13.3126 11.1588 13.3126Z" fill="#DB1B24"/>
<path d="M10.3433 14.6659C10.2773 14.6659 10.2238 14.6137 10.2238 14.5493C10.2238 14.4848 10.2773 14.4326 10.3433 14.4326C10.4094 14.4326 10.4629 14.4848 10.4629 14.5493C10.4629 14.6137 10.4094 14.6659 10.3433 14.6659Z" fill="#DB1B24"/>
<path d="M12.7222 14.2206C12.6562 14.2206 12.6027 14.1684 12.6027 14.104C12.6027 14.0395 12.6562 13.9873 12.7222 13.9873C12.7883 13.9873 12.8418 14.0395 12.8418 14.104C12.8418 14.1684 12.7883 14.2206 12.7222 14.2206Z" fill="#DB1B24"/>
<path d="M11.5925 14.4761C11.485 14.4761 11.3979 14.3911 11.3979 14.2863C11.3979 14.1814 11.485 14.0964 11.5925 14.0964C11.7 14.0964 11.7871 14.1814 11.7871 14.2863C11.7871 14.3911 11.7 14.4761 11.5925 14.4761Z" fill="#DB1B24"/>
<path d="M12.4265 14.6658C12.319 14.6658 12.2319 14.5808 12.2319 14.476C12.2319 14.3711 12.319 14.2861 12.4265 14.2861C12.534 14.2861 12.6211 14.3711 12.6211 14.476C12.6211 14.5808 12.534 14.6658 12.4265 14.6658Z" fill="#DB1B24"/>
<path d="M10.7244 14.2925C10.6169 14.2925 10.5298 14.2075 10.5298 14.1027C10.5298 13.9978 10.6169 13.9128 10.7244 13.9128C10.8318 13.9128 10.9189 13.9978 10.9189 14.1027C10.9189 14.2075 10.8318 14.2925 10.7244 14.2925Z" fill="#DB1B24"/>
<path d="M11.0386 14.7235C10.9726 14.7235 10.9191 14.6713 10.9191 14.6069C10.9191 14.5425 10.9726 14.4902 11.0386 14.4902C11.1047 14.4902 11.1582 14.5425 11.1582 14.6069C11.1582 14.6713 11.1047 14.7235 11.0386 14.7235Z" fill="#DB1B24"/>
<path fill-rule="evenodd" clip-rule="evenodd" d="M2.65332 12.2695C2.65332 12.166 2.73727 12.082 2.84082 12.082H9.8721C9.97565 12.082 10.0596 12.166 10.0596 12.2695C10.0596 12.3731 9.97565 12.457 9.8721 12.457H3.02832V13.7695C3.02832 13.8731 2.94437 13.957 2.84082 13.957C2.73727 13.957 2.65332 13.8731 2.65332 13.7695V12.2695Z" fill="#FE666D"/>
<path d="M9.43985 10.5429H6.16261V9.89275L7.70929 8.24428C7.92164 8.01222 8.07817 7.80972 8.17887 7.63678C8.28176 7.46383 8.33321 7.29964 8.33321 7.1442C8.33321 6.93185 8.27957 6.76547 8.1723 6.64507C8.06503 6.52247 7.91179 6.46117 7.71257 6.46117C7.49803 6.46117 7.32836 6.53561 7.20358 6.68447C7.08098 6.83115 7.01969 7.02489 7.01969 7.2657H6.06738C6.06738 6.97454 6.13634 6.70855 6.27426 6.46774C6.41437 6.22693 6.6114 6.03866 6.86535 5.90292C7.1193 5.765 7.40718 5.69604 7.72899 5.69604C8.22156 5.69604 8.60358 5.81426 8.87504 6.0507C9.14869 6.28713 9.28551 6.62098 9.28551 7.05226C9.28551 7.28869 9.22422 7.5295 9.10162 7.7747C8.97902 8.01989 8.76886 8.30558 8.47113 8.63177L7.38419 9.77782H9.43985V10.5429Z" fill="#D9EAEF"/>
<path fill-rule="evenodd" clip-rule="evenodd" d="M10.0002 10.5428C10.0002 10.8524 9.74926 11.1033 9.43974 11.1033H6.1625C5.85298 11.1033 5.60207 10.8524 5.60207 10.5428V9.89264C5.60207 9.75018 5.65632 9.61306 5.7538 9.50917L7.29802 7.86331C7.49551 7.64726 7.62216 7.47881 7.69444 7.35466L7.69712 7.35012C7.76332 7.23884 7.77266 7.17307 7.77266 7.14409C7.77266 7.0842 7.76501 7.04919 7.75947 7.032C7.75852 7.02907 7.75764 7.02663 7.75684 7.02464C7.74788 7.0231 7.73351 7.0215 7.71246 7.0215C7.67055 7.0215 7.65297 7.02856 7.64946 7.03011C7.64725 7.03107 7.64575 7.03198 7.64412 7.03322C7.64243 7.0345 7.63871 7.03758 7.63322 7.04408C7.61484 7.0662 7.58001 7.12182 7.58001 7.26559C7.58001 7.57511 7.3291 7.82603 7.01958 7.82603H6.06727C5.75775 7.82603 5.50684 7.57511 5.50684 7.26559C5.50684 6.88171 5.59892 6.51894 5.78783 6.1891L5.78973 6.18578C5.98363 5.85252 6.25777 5.59239 6.59942 5.40943C6.94403 5.22265 7.32509 5.1355 7.72888 5.1355C8.30637 5.1355 8.83652 5.27438 9.24217 5.62724C9.66231 5.9907 9.84584 6.49285 9.84584 7.05215C9.84584 7.38847 9.75808 7.71462 9.60278 8.02522C9.44739 8.336 9.19905 8.66535 8.88495 9.00948C8.88255 9.01212 8.88011 9.01473 8.87765 9.01732L8.68802 9.21727H9.43974C9.74926 9.21727 10.0002 9.46819 10.0002 9.77771V10.5428ZM7.38408 9.77771L8.47102 8.63166C8.76875 8.30547 8.97891 8.01978 9.10151 7.77458C9.22411 7.52939 9.2854 7.28858 9.2854 7.05215C9.2854 6.62087 9.14858 6.28702 8.87493 6.05059C8.60347 5.81415 8.22145 5.69593 7.72888 5.69593C7.40707 5.69593 7.11919 5.76489 6.86524 5.90281C6.61129 6.03855 6.41426 6.22682 6.27415 6.46763C6.23027 6.54426 6.19336 6.62343 6.16344 6.70516C6.09933 6.88027 6.06727 7.06708 6.06727 7.26559H7.01958C7.01958 7.02478 7.08087 6.83104 7.20347 6.68436C7.32825 6.53549 7.49792 6.46106 7.71246 6.46106C7.91168 6.46106 8.06492 6.52236 8.17219 6.64495C8.27946 6.76536 8.3331 6.93174 8.3331 7.14409C8.3331 7.29953 8.28165 7.46372 8.17876 7.63666C8.07806 7.80961 7.92153 8.01211 7.70918 8.24417L6.1625 9.89264V10.5428H9.43974V9.77771H7.38408Z" fill="#81A5B0"/>
</svg>
