<svg width="249" height="103" viewBox="0 0 249 103" fill="none" xmlns="http://www.w3.org/2000/svg">
<path d="M155.368 0C184.031 0 207.267 13.9126 207.267 31.0742C207.266 35.7885 205.51 40.255 202.372 44.2578C202.701 44.2539 203.031 44.252 203.362 44.252C228.341 44.252 248.59 55.4687 248.59 69.3057C248.59 83.1427 228.341 94.3603 203.362 94.3604C195.041 94.3604 187.244 93.1135 180.546 90.9414C171.639 97.7594 157.483 102.169 141.54 102.169C134.071 102.169 126.993 101.199 120.664 99.4697C110.782 101.191 99.5026 102.169 87.5264 102.169C69.3948 102.169 52.8599 99.9313 40.3564 96.2559C38.5518 96.5054 36.7013 96.6377 34.8154 96.6377C15.5873 96.6377 0 83.1625 0 66.54C7.27374e-05 49.9176 15.5873 36.4424 34.8154 36.4424C39.1992 36.4424 43.3932 37.1444 47.2568 38.4229C48.5269 27.5151 65.9964 18.8721 87.3643 18.8721C94.1331 18.8721 100.511 19.7406 106.106 21.2725C112.962 8.91401 132.426 8.59703e-05 155.368 0Z" fill="url(#paint0_linear_266_4616)"/>
<defs>
<linearGradient id="paint0_linear_266_4616" x1="124.295" y1="0" x2="124.295" y2="102.169" gradientUnits="userSpaceOnUse">
<stop stop-color="#D9EFF5"/>
<stop offset="0.854167" stop-color="#F8FAFB"/>
</linearGradient>
</defs>
</svg>
