<svg width="428" height="387" viewBox="0 0 428 387" fill="none" xmlns="http://www.w3.org/2000/svg">
<path d="M0 387V29.3834C7.96776 12.1997 28.1119 0 51.7031 0C78.2389 0 100.413 15.4352 105.804 36.0367C115.387 29.4666 127.694 25.517 141.117 25.517C149.575 25.517 157.59 27.0852 164.76 29.889C172.564 12.4395 192.871 0 216.693 0C242.16 0 263.61 14.2166 270.062 33.5726C275.074 32.3388 280.385 31.6762 285.883 31.6762C302.342 31.6762 317.122 37.6143 327.261 47.04C332.03 25.7792 354.582 9.67885 381.684 9.67885C401.06 9.67885 418.111 17.9088 428 30.3707V387H0Z" fill="white"/>
<path fill-rule="evenodd" clip-rule="evenodd" d="M325.513 53.4054V163.728H318.948V127.186H278.578V177.391H268.562V164.4H270.355V163.12H268.562V147.217H270.355V145.937H268.562V130.034H270.355V128.754H268.562V112.851H270.355V111.572H268.562V95.6687H270.355V94.3888H268.562V78.486H270.355V77.2061H268.562V60.7593H271.641V59.4794H273.232V55.9916H265.956V52.1199H266.904V51H250.898V52.1199H251.845V55.9916H222.439V59.4794H224.03V60.7593H227.109V77.238H225.315V78.518H227.109V94.3888H225.315V95.6687H227.109V111.572H225.315V112.851H227.109V128.754H225.315V130.034H227.109V145.937H225.315V147.217H227.109V163.12H225.315V163.696H215.333V88.95H216.89V86.0061H206.602V77.9748H192.762V86.0061H184.066V77.9748H157.468V86.0061H151.242V88.95H154.761V129.139L132.867 128.851V115.795H113.139V73.5903L114.492 73.5445L65.1547 73.6223V138.514H50.2654V164.912H24.1078V105.972H25.6644V103.348H0V387H428V151.729H417.522V115.091H392.244V174.671H385.442V68.9132L325.513 53.4054ZM377.524 152.369H374.309V144.657H377.524V152.369ZM377.524 137.586H374.309V129.874H377.524V137.586ZM377.524 123.699H374.309V115.987H377.524V123.699ZM377.524 108.916H374.309V101.204H377.524V108.916ZM377.524 94.1648H374.309V86.4534H377.524V94.1648ZM377.524 79.3819H374.309V71.6705H377.524V79.3819ZM363.718 152.369H360.503V144.657H363.718V152.369ZM363.718 137.586H360.503V129.874H363.718V137.586ZM363.718 123.699H360.503V115.987H363.718V123.699ZM363.718 108.916H360.503V101.204H363.718V108.916ZM363.718 94.1648H360.503V86.4534H363.718V94.1648ZM363.718 79.3819H360.503V71.6705H363.718V79.3819ZM349.911 152.369H346.697V144.657H349.911V152.369ZM349.911 137.586H346.697V129.874H349.911V137.586ZM349.911 123.699H346.697V115.987H349.911V123.699ZM349.911 108.916H346.697V101.204H349.911V108.916ZM349.911 94.1648H346.697V86.4534H349.911V94.1648ZM349.911 79.3819H346.697V71.6705H349.911V79.3819ZM336.139 152.369H332.924V144.657H336.139V152.369ZM336.139 137.586H332.924V129.874H336.139V137.586ZM336.139 123.699H332.924V115.987H336.139V123.699ZM336.139 108.916H332.924V101.204H336.139V108.916ZM336.139 94.1648H332.924V86.4534H336.139V94.1648ZM336.139 79.3819H332.924V71.6705H336.139V79.3819ZM264.535 161.296H262.369V152.88H264.535V161.296ZM264.535 143.281H262.369V134.866H264.535V143.281ZM264.535 127.154H262.369V118.739H264.535V127.154ZM264.535 109.396H262.369V100.98H264.535V109.396ZM264.535 91.637H262.369V83.2216H264.535V91.637ZM264.535 74.3263H262.369V65.9109H264.535V74.3263ZM253.808 161.296H251.642V152.88H253.808V161.296ZM253.808 143.281H251.642V134.866H253.808V143.281ZM253.808 127.154H251.642V118.739H253.808V127.154ZM253.808 109.396H251.642V100.98H253.808V109.396ZM253.808 91.637H251.642V83.2216H253.808V91.637ZM253.808 74.3263H251.642V65.9109H253.808V74.3263ZM243.115 161.296H240.949V152.88H243.115V161.296ZM243.115 143.281H240.949V134.866H243.115V143.281ZM243.115 127.154H240.949V118.739H243.115V127.154ZM243.115 109.396H240.949V100.98H243.115V109.396ZM243.115 91.637H240.949V83.2216H243.115V91.637ZM243.115 74.3263H240.949V65.9109H243.115V74.3263ZM232.422 143.281H230.256V134.866H232.422V143.281ZM232.422 127.154H230.256V118.739H232.422V127.154ZM232.422 109.396H230.256V100.98H232.422V109.396ZM232.422 91.637H230.256V83.2216H232.422V91.637ZM232.422 74.3263H230.256V65.9109H232.422V74.3263ZM108.097 107.316H106.1V101.908H108.097V107.316ZM108.097 97.0126H106.1V91.605H108.097V97.0126ZM108.097 87.3173H106.1V81.9097H108.097V87.3173ZM101.836 107.316H99.8398V101.908H101.836V107.316ZM101.836 97.0126H99.8398V91.605H101.836V97.0126ZM101.836 87.3173H99.8398V81.9097H101.836V87.3173ZM95.9146 107.316H93.918V101.908H95.9146V107.316ZM95.9146 97.0126H93.918V91.605H95.9146V97.0126ZM95.9146 87.3173H93.918V81.9097H95.9146V87.3173ZM89.6204 107.316H87.6239V101.908H89.6204V107.316ZM89.6204 97.0126H87.6239V91.605H89.6204V97.0126ZM89.6204 87.3173H87.6239V81.9097H89.6204V87.3173ZM82.7511 97.0126H80.7546V91.605H82.7511V97.0126ZM82.7511 87.3173H80.7546V81.9097H82.7511V87.3173ZM76.4908 87.3173H74.4943V81.9097H76.4908V87.3173ZM21.1638 123.059H18.9642V118.227H21.1638V123.059ZM21.1638 115.251H18.9642V110.42H21.1638V115.251ZM15.5465 115.251H13.3469V110.42H15.5465V115.251Z" fill="#B5DBE1"/>
<path d="M0 194.1C0 174.715 17.4202 159 38.9091 159C59.7424 159 76.7514 173.771 77.7699 192.336C83.4304 188.365 90.5442 186 98.2704 186C108.967 186 118.489 190.533 124.607 197.585C128.568 180.684 145.199 168 165.114 168C179.668 168 192.468 174.774 199.851 185.018C204.288 170.035 219.438 159 237.445 159C256.532 159 272.408 171.398 275.72 187.753C283.195 181.104 293.46 177 304.788 177C316.875 177 327.753 181.673 335.322 189.125C341.292 171.678 359.31 159 380.611 159C406.783 159 428 178.14 428 201.75V387H0V194.1Z" fill="#74CA7E"/>
<path d="M0 197.922V387H428V200.762C418.407 208.225 411.136 217.917 407.253 228.906C395.859 218.045 379.486 211.235 361.292 211.235C344.242 211.235 328.791 217.216 317.539 226.907C312.555 203.069 288.657 185 259.928 185C232.823 185 210.019 201.084 203.341 222.921C192.228 207.991 172.961 198.117 151.055 198.117C121.078 198.117 96.0454 216.604 90.0826 241.238C80.8745 230.959 66.5409 224.352 50.4407 224.352C38.8113 224.352 28.1035 227.799 19.5833 233.587C18.7803 219.416 11.3757 206.761 0 197.922Z" fill="#76EB84"/>
</svg>
