<svg width="144" height="84" viewBox="0 0 144 84" fill="none" xmlns="http://www.w3.org/2000/svg">
<path d="M63.8701 0C79.8278 0 93.4439 10.5133 98.7842 25.3018C99.4419 25.2813 100.103 25.2695 100.769 25.2695C124.364 25.2696 143.492 38.2595 143.492 54.2832C143.492 70.307 124.364 83.2968 100.769 83.2969C94.1988 83.2969 87.9757 82.2884 82.415 80.4893H55.5C50.0799 82.2758 43.8038 83.2968 37.1143 83.2969C16.6168 83.2969 0 73.7117 0 61.8877C4.40544e-06 52.171 11.2216 43.9675 26.5967 41.3516C26.5597 40.6365 26.541 39.9162 26.541 39.1914C26.5411 17.5465 43.2537 0.000130959 63.8701 0Z" fill="url(#paint0_linear_266_4611)"/>
<defs>
<linearGradient id="paint0_linear_266_4611" x1="71.7461" y1="0" x2="71.7461" y2="83.2969" gradientUnits="userSpaceOnUse">
<stop stop-color="#D9EFF5"/>
<stop offset="1" stop-color="white"/>
</linearGradient>
</defs>
</svg>
