<svg width="49" height="46" viewBox="0 0 49 46" fill="none" xmlns="http://www.w3.org/2000/svg">
<path d="M11.7718 0.853781C13.949 1.15659 16.6216 2.89001 18.6101 4.02313C19.8078 4.70215 21.0149 5.36225 22.2307 6.00341C29.9783 10.1279 39.9246 13.9722 42.9584 23.5639C45.5479 31.7507 41.3132 38.9908 33.9231 41.5875C27.9417 43.5842 19.8536 40.4594 15.1344 36.4295C10.6641 32.6135 6.60285 27.2349 5.86113 20.9853C5.6937 19.5743 5.71519 17.3868 6.55073 16.1806C7.10335 15.4546 7.73524 15.3675 8.54209 15.2935C7.81617 13.3775 7.26555 11.6685 7.12764 9.589C6.89403 6.06777 7.73877 1.12792 11.7718 0.853781Z" fill="url(#paint0_linear_117_1516)"/>
<path d="M12.1817 2.77369C14.0277 3.29486 16.7135 4.99583 18.445 6.04036C26.6542 10.9921 40.7245 15.2984 41.6409 27.2315C41.8607 30.3101 40.9358 33.3549 39.067 35.7046C36.7119 38.6374 33.5735 39.8571 30.0596 40.1321C21.663 40.684 11.5507 32.5484 8.53146 24.3934C7.95424 22.8343 6.79877 18.0566 8.7368 17.2645C9.18851 17.0797 12.383 19.302 12.9609 19.677C10.6086 16.7933 8.73756 12.1534 8.98848 8.29823C9.08744 6.77705 9.36515 4.2969 10.4732 3.20734C10.9804 2.70881 11.5572 2.7234 12.1817 2.77369Z" fill="url(#paint1_linear_117_1516)"/>
<defs>
<linearGradient id="paint0_linear_117_1516" x1="5.73462" y1="19.4246" x2="44.1248" y2="24.1125" gradientUnits="userSpaceOnUse">
<stop stop-color="#CE7103"/>
<stop offset="1" stop-color="#E79007"/>
</linearGradient>
<linearGradient id="paint1_linear_117_1516" x1="27.9198" y1="6.84948" x2="13.952" y2="39.4353" gradientUnits="userSpaceOnUse">
<stop stop-color="#FECC2A"/>
<stop offset="1" stop-color="#FFA617"/>
</linearGradient>
</defs>
</svg>
