<svg width="49" height="46" viewBox="0 0 49 46" fill="none" xmlns="http://www.w3.org/2000/svg">
<path d="M11.7718 0.853781C13.949 1.15659 16.6216 2.89001 18.6101 4.02313C19.8078 4.70215 21.0149 5.36225 22.2307 6.00341C29.9783 10.1279 39.9246 13.9722 42.9584 23.5639C45.5479 31.7507 41.3132 38.9908 33.9231 41.5875C27.9417 43.5842 19.8536 40.4594 15.1344 36.4295C10.6641 32.6135 6.60285 27.2349 5.86113 20.9853C5.6937 19.5743 5.71519 17.3868 6.55073 16.1806C7.10335 15.4546 7.73524 15.3675 8.54209 15.2935C7.81617 13.3775 7.26555 11.6685 7.12764 9.589C6.89403 6.06777 7.73877 1.12792 11.7718 0.853781Z" fill="#C15160"/>
<path d="M12.1817 2.77418C14.0277 3.29535 16.7135 4.99632 18.445 6.04085C26.6542 10.9926 40.7245 15.2989 41.6409 27.2319C41.8607 30.3106 40.9358 33.3553 39.067 35.705C36.7119 38.6379 33.5735 39.8576 30.0596 40.1326C21.663 40.6845 11.5507 32.5489 8.53146 24.3939C7.95424 22.8348 6.79877 18.0571 8.7368 17.265C9.18851 17.0802 12.383 19.3025 12.9609 19.6775C10.6086 16.7938 8.73756 12.1539 8.98848 8.29872C9.08744 6.77754 9.36515 4.29739 10.4732 3.20783C10.9804 2.7093 11.5572 2.72389 12.1817 2.77418Z" fill="url(#paint0_linear_117_1607)"/>
<path d="M12.1817 2.77418C14.0277 3.29535 16.7135 4.99632 18.445 6.04085C26.6542 10.9926 40.7245 15.2989 41.6409 27.2319C41.8607 30.3106 40.9358 33.3553 39.067 35.705C36.7119 38.6379 33.5735 39.8576 30.0596 40.1326C21.663 40.6845 11.5507 32.5489 8.53146 24.3939C7.95424 22.8348 6.79877 18.0571 8.7368 17.265C9.18851 17.0802 12.383 19.3025 12.9609 19.6775C10.6086 16.7938 8.73756 12.1539 8.98848 8.29872C9.08744 6.77754 9.36515 4.29739 10.4732 3.20783C10.9804 2.7093 11.5572 2.72389 12.1817 2.77418Z" fill="url(#paint1_linear_117_1607)" fill-opacity="0.2"/>
<defs>
<linearGradient id="paint0_linear_117_1607" x1="27.9198" y1="6.84997" x2="19.8048" y2="38.1852" gradientUnits="userSpaceOnUse">
<stop stop-color="#FFA5AD"/>
<stop offset="1" stop-color="#F3818A"/>
</linearGradient>
<linearGradient id="paint1_linear_117_1607" x1="32.4999" y1="15.8849" x2="20.0998" y2="38.0474" gradientUnits="userSpaceOnUse">
<stop stop-color="#C2C3C5"/>
<stop offset="0.276993" stop-color="#C2C3C5" stop-opacity="0"/>
</linearGradient>
</defs>
</svg>
